<svg width="435" height="60" viewBox="0 0 435 60" fill="none" xmlns="http://www.w3.org/2000/svg">
<g clip-path="url(#clip0_54_445)">
<path fill-rule="evenodd" clip-rule="evenodd" d="M63.1869 8.4815C55.1335 10.2065 49.6891 15.959 48.2047 24.3115C47.5224 28.1513 47.7445 34.7462 48.6551 37.6833C50.9659 45.1389 55.8172 49.7814 63.0508 51.4588C64.392 51.7697 67.0891 52 69.3901 52C76.1609 52 81.1979 50.2911 84.7622 46.7841C86.8735 44.707 87.0421 44.2027 85.9498 43.2302C85.2377 42.5962 85.1674 42.6005 83.5841 43.3785C76.9833 46.6215 68.4974 45.8467 64.7605 41.6595C62.951 39.6322 61.5544 36.2975 61.3094 33.4188L61.0927 30.8778H74.213H87.333L87.5347 30.0719C88.0633 27.96 88.1991 23.626 87.8063 21.4063C87.1236 17.5479 86.0889 15.2999 83.9507 13.0279C81.6876 10.6231 79.1205 9.26162 75.3959 8.49081C72.259 7.84178 66.1964 7.83712 63.1869 8.4815ZM110.889 8.4994C102.833 10.2413 97.7223 14.9564 95.5622 22.6395C94.6644 25.8334 94.6531 33.9718 95.5415 37.4809C97.4365 44.9634 102.264 49.7452 109.653 51.4588C112.561 52.1332 119.362 52.1691 121.817 51.5233C124.614 50.7872 127.374 49.2606 129.139 47.4732C131.034 45.5555 131.448 44.385 130.57 43.4308C129.97 42.7781 129.877 42.7946 127.231 44.0314C124.737 45.1963 124.226 45.3048 121.154 45.3188C118.296 45.332 117.506 45.1988 115.804 44.4158C113.192 43.2141 111.205 41.2365 109.935 38.5773C108.565 35.7086 108.163 33.3915 108.172 28.4113C108.182 22.7577 108.678 19.6845 110.019 16.9838C111.468 14.0645 112.993 13.024 116.204 12.7629C119.769 12.4731 120.075 12.7443 121.896 17.8133C124.201 24.2313 123.869 23.7696 126.096 23.6431C127.876 23.5425 128.05 23.449 128.631 22.281C129.329 20.8758 131.101 13.1956 131.101 11.5712C131.101 10.5769 130.949 10.4709 128.28 9.61336C126.728 9.11477 124.486 8.53737 123.298 8.33034C120.388 7.82315 113.587 7.91592 110.889 8.4994ZM0.107403 11.088L0.21517 13.5058L1.58047 13.8374L2.94576 14.1695V30.0317V45.894L1.48945 46.2798L0.0331311 46.6655V48.9801V51.2944L9.40815 51.3839C26.6739 51.5487 29.8257 51.2865 34.0195 49.3344C38.1252 47.4235 40.6374 44.1267 41.0604 40.0953C41.6167 34.7913 38.4693 30.4806 32.8661 28.8723C31.7284 28.546 30.552 28.2075 30.2517 28.1201C29.9513 28.0331 30.556 27.6659 31.5958 27.3045C33.8921 26.5065 34.0406 26.4248 35.9946 24.881C38.162 23.1693 39.1384 21.1942 39.1395 18.5204C39.1417 13.2722 36.6591 10.6507 30.362 9.25231C28.1921 8.77019 25.3552 8.67026 13.8707 8.67026H0L0.107403 11.088ZM136.311 9.25768C136.03 9.978 136.795 17.3831 137.624 21.9579L138.234 25.3259H140.038H141.842L143.771 19.5054L145.701 13.6849H148.777H151.854V29.7893V45.894L150.313 46.3023C149.465 46.5269 148.154 46.9535 147.4 47.2505C146.076 47.7716 146.029 47.8508 146.029 49.5425V51.2944H158.225H170.422V49.5425C170.422 47.849 170.376 47.7727 169.057 47.2698C168.306 46.9836 166.913 46.5423 165.962 46.2891L164.233 45.8285V29.7567V13.6849H167.452H170.672L172.235 18.4308C173.095 21.0413 173.948 23.7005 174.13 24.3409C174.446 25.4531 174.541 25.505 176.257 25.505C178.301 25.505 178.09 25.8714 178.961 20.8045C179.719 16.3902 180.375 9.85944 180.124 9.21721C179.936 8.73509 177.335 8.67026 158.225 8.67026C138.464 8.67026 136.519 8.7222 136.311 9.25768ZM185.233 8.9038C185.096 9.03812 184.985 9.81896 184.985 10.6396C184.985 12.3259 185.264 12.5526 188.626 13.5989L190.628 14.2221L190.723 29.9096L190.818 45.5967L189.631 46.0595C188.978 46.3138 187.665 46.8031 186.714 47.1469L184.985 47.7716V49.5382V51.3044L196.362 51.2098L207.74 51.1153V49.5034V47.8916L205.282 46.7078L202.825 45.5244V38.9173V32.3105H211.017H219.208V38.9173V45.5244L216.751 46.7078L214.293 47.8916V49.5034V51.1153L225.69 51.2098L237.087 51.3048L236.977 49.4189L236.866 47.5334L234.227 46.6784L231.587 45.8238V29.9619V14.1L232.756 13.8475C233.399 13.7085 234.637 13.2948 235.506 12.9277C237.087 12.2614 237.088 12.2589 236.977 10.555L236.866 8.84935H225.58H214.293L214.184 10.3129C214.057 12.0197 214.424 12.4194 217.169 13.5638L219.026 14.3378L219.126 20.8171L219.225 27.2959H211.025H202.825V20.8683V14.4403L205.282 13.2568L207.74 12.073V10.4612V8.84935L196.61 8.75479C190.489 8.70285 185.369 8.76984 185.233 8.9038ZM243.121 8.9038C242.985 9.03812 242.874 9.82863 242.874 10.6607C242.874 12.0931 242.957 12.2116 244.447 12.9008C245.312 13.3009 246.623 13.7397 247.359 13.8754L248.699 14.1229V29.9927V45.8628L245.786 46.8171L242.874 47.7713V49.5396V51.308L251.119 51.2116L259.365 51.1153L261.261 48.0707C266.011 40.4431 274.992 25.3685 276.589 22.3429C277.559 20.5054 278.413 19.1805 278.487 19.3994C278.561 19.6179 278.442 21.1065 278.223 22.7076C278.004 24.309 277.825 30.1761 277.825 35.7462V45.8732L277.006 46.1175C276.556 46.2518 275.408 46.6856 274.457 47.0814C272.73 47.7999 272.728 47.8024 272.728 49.5525V51.3044L284.105 51.2098L295.483 51.1153L295.598 49.747C295.661 48.9945 295.516 48.1466 295.276 47.8626C295.037 47.5786 293.716 47.0101 292.34 46.5989L289.84 45.8517V29.9923V14.1326L290.936 13.917C291.54 13.798 292.858 13.3517 293.867 12.9248L295.701 12.149L295.592 10.4992L295.483 8.84935L287.655 8.76124C283.35 8.71288 279.648 8.79348 279.428 8.94033C278.895 9.29637 263.348 34.9991 261.662 38.3101C260.306 40.974 259.508 41.6685 259.81 39.922C260.499 35.9339 260.713 32.1039 260.713 23.775V14.2168L263.171 13.283L265.628 12.3492V10.5991V8.84935L254.499 8.75479C248.378 8.70285 243.258 8.76984 243.121 8.9038ZM301.374 8.9038C301.238 9.03812 301.126 9.82899 301.126 10.6618V12.1758L303.497 13.1096C304.8 13.6229 306.111 14.043 306.409 14.043C306.881 14.043 306.951 16.0947 306.951 29.9118V45.7805L304.44 46.5764C303.059 47.0141 301.737 47.5986 301.504 47.8755C301.27 48.1524 301.13 48.9945 301.193 49.747L301.308 51.1153L312.686 51.2098L324.063 51.3044V49.5479C324.063 47.8314 324.028 47.7752 322.516 47.0825C321.665 46.6924 320.6 46.2608 320.149 46.1232C319.335 45.875 319.33 45.8256 319.33 38.7142V31.5548L321.059 31.664L322.789 31.7732L326.248 37.9555C330.155 44.9398 332.625 48.4024 334.923 50.1181L336.498 51.2944H341.749H347V48.9339V46.5735L344.508 43.8298C343.136 42.3207 339.942 38.5071 337.409 35.3551C334.877 32.2031 332.285 29.022 331.651 28.2859L330.497 26.9474L335.391 22.0177C338.082 19.3062 340.743 16.4923 341.303 15.7645C342.085 14.7487 342.865 14.2637 344.661 13.6759L347 12.9101V10.7843V8.65808L337.625 8.75372L328.25 8.84935L328.14 10.5235L328.03 12.1977L330.418 13.3188C332.654 14.3686 332.779 14.4901 332.384 15.2265C331.639 16.6188 328.73 20.5807 325.982 23.9455C323.693 26.7486 323.112 27.2554 321.956 27.4567C321.212 27.5864 320.317 27.7752 319.967 27.8765C319.376 28.0474 319.33 27.5613 319.33 21.1208V14.1809L320.695 13.5699C323.088 12.4985 323.392 12.1246 323.266 10.4053L323.153 8.84935L312.387 8.75443C306.466 8.7025 301.511 8.76948 301.374 8.9038ZM72.4527 13.6623C74.4209 15.0413 75.5146 18.7643 75.3224 23.4332L75.2154 26.0423L68.2323 26.1393L61.2493 26.2368L61.4353 24.1693C61.8657 19.3893 63.3722 15.2193 65.1897 13.7787C66.8386 12.4717 70.6655 12.4104 72.4527 13.6623ZM23.8988 14.2601C26.8293 15.7272 27.8334 19.9427 26.1073 23.535C24.6882 26.4879 23.6498 27.1924 20.0669 27.633C18.3703 27.8414 16.6089 28.0123 16.1531 28.0123H15.3244V20.8783C15.3244 15.5177 15.4377 13.6945 15.7795 13.543C16.03 13.4323 17.6356 13.3865 19.3479 13.4409C21.5906 13.5126 22.8627 13.7415 23.8988 14.2601ZM24.0441 32.534C26.908 33.711 28.0672 35.6596 28.0672 39.2951C28.0672 42.103 27.4777 43.6507 25.9158 44.9437C24.2738 46.3031 22.5383 46.6988 18.7832 46.5706L15.5065 46.4589L15.4074 39.4846C15.3528 35.6492 15.3972 32.2826 15.5057 32.0039C15.667 31.5902 16.3522 31.544 19.2328 31.7521C21.1737 31.8922 23.3389 32.2439 24.0441 32.534Z" fill="#202020"/>
<rect x="375" y="0.0458984" width="59.7431" height="59.7431" rx="29.8716" fill="#F7931D"/>
<path d="M405.456 35.2784C405.228 35.259 405.093 35.1222 405.164 34.867L406.561 28.3913C406.836 27.025 406.461 26.193 405.22 26.006H404.127C403.111 26.0508 402.353 26.914 402.061 27.7443C401.634 29.429 401.237 30.8455 400.841 31.8428C399.741 34.9074 397.198 35.2315 396.381 35.2475L389.901 35.2563H389.869C386.919 35.2563 384.626 32.961 384.509 30.3448C384.434 28.6615 385.254 26.6601 387.519 25.2941C385.059 21.4383 388.116 17.6973 392.942 17.6973C393.001 17.6973 393.06 17.6976 393.118 17.699H398.147L398.178 17.6983C398.345 17.6983 398.415 17.791 398.386 17.9451L397.935 20.5069C397.896 20.7224 397.746 20.8005 397.546 20.8158L392.186 20.8521C391.177 20.9166 390.418 21.3698 390.416 22.5565C390.567 23.6729 391.187 23.9652 391.961 24.1278L396.102 24.137C396.369 24.158 396.456 24.3067 396.422 24.5182L396.016 26.9883C395.986 27.2039 395.85 27.3115 395.605 27.3115L395.563 27.3105L390.86 27.3091V27.3108C389.25 27.3397 388.489 28.6642 388.434 29.7046C388.379 30.745 388.99 31.799 390.106 31.8975L395.483 31.89C396.531 31.8886 397.365 31.4253 397.585 30.7542L397.587 30.7528L398.849 26.5841C399.645 24.0005 402.358 22.6525 404.929 22.6525C407.872 22.6525 410.628 24.4174 410.116 28.1157L408.742 34.8945C408.707 35.1833 408.529 35.2733 408.284 35.2736L405.456 35.2784ZM417.377 35.551C417.345 35.551 417.315 35.5503 417.283 35.5496C415.874 35.5085 415.351 34.2139 415.758 32.9884L416.116 31.0281C416.108 30.7623 415.98 30.6157 415.733 30.5885H413.774C412.859 30.5651 412.114 29.726 412.137 28.8553C412.162 27.8373 412.866 27.008 414.124 27.008C414.182 27.008 414.243 27.0094 414.303 27.0135H416.416C416.725 26.9296 416.936 26.8166 417.027 26.468L417.486 24.1203C417.719 23.0276 418.207 22.1831 419.464 22.1831C419.497 22.1831 419.529 22.1838 419.563 22.1844C420.7 22.2225 421.482 23.2347 421.206 24.3206L420.741 26.6092C420.702 26.9242 420.965 26.9938 421.173 27.0135H423.173C424.537 27.0471 425.017 28.0396 424.969 28.9123C424.923 29.7773 424.247 30.6004 422.921 30.6004C422.832 30.6004 422.739 30.5967 422.644 30.5892H420.594C420.261 30.5964 419.95 30.8167 419.823 31.0957L419.403 33.1901C419.186 34.1877 419.045 35.551 417.377 35.551Z" fill="white"/>
<path d="M395.552 39.4456V40.2959H396.274C396.507 40.2959 396.787 40.2246 396.787 39.8777C396.787 39.5026 396.54 39.4459 396.251 39.4459H395.552M397.642 42.1435H396.84C396.745 42.0105 396.711 41.8536 396.711 41.4307C396.711 41.1696 396.673 40.9083 396.166 40.9083H395.553V42.1435H394.764V38.7949H396.479C397.22 38.7949 397.586 39.1696 397.586 39.7494C397.586 40.2344 397.315 40.4911 397.035 40.5807V40.5953C397.477 40.7185 397.515 41.0987 397.515 41.4076C397.515 41.8441 397.528 41.9772 397.642 42.1435ZM421.759 39.45V40.3427H422.377C422.704 40.3427 422.942 40.2528 422.942 39.8824C422.942 39.5406 422.728 39.4503 422.377 39.4503H421.759M421.759 42.1435H420.971V38.7949H422.529C423.484 38.7949 423.764 39.303 423.764 39.8774C423.764 40.9276 422.895 40.9938 422.51 40.9938H421.759V42.1435M387.409 42.2341C386.278 42.2341 385.761 41.5828 385.761 40.4615C385.761 38.7945 387.034 38.6995 387.523 38.6995C388.501 38.6995 388.919 39.3502 388.991 39.8821H388.164C388.164 39.6492 387.988 39.3502 387.518 39.3502C386.682 39.3502 386.611 40.115 386.611 40.4809C386.611 41.2647 387.01 41.5827 387.495 41.5827C387.941 41.5827 388.236 41.3166 388.264 40.932H387.594V40.3241H389.019V42.1432H388.43V41.7823C388.164 42.2342 387.689 42.2341 387.409 42.2341ZM404.922 39.3549C404.228 39.3549 404.08 39.9486 404.08 40.471C404.08 40.989 404.228 41.5827 404.922 41.5827C405.61 41.5827 405.757 40.989 405.757 40.471C405.757 39.9486 405.61 39.3549 404.922 39.3549ZM404.922 42.2341C403.643 42.2341 403.225 41.3166 403.225 40.471C403.225 39.6207 403.643 38.7042 404.922 38.7042C406.195 38.7042 406.612 39.6207 406.612 40.471C406.612 41.3166 406.195 42.2341 404.922 42.2341ZM413.772 42.2341C412.423 42.2341 412.323 41.3214 412.323 40.875V38.7945H413.112V40.7467C413.112 41.2311 413.235 41.5827 413.772 41.5827C414.308 41.5827 414.432 41.2311 414.432 40.7467V38.7945H415.221V40.875C415.221 41.3214 415.122 42.2341 413.772 42.2341Z" fill="white"/>
</g>
<defs>
<clipPath id="clip0_54_445">
<rect width="435" height="60" fill="white"/>
</clipPath>
</defs>
</svg>
